<svg width="192" height="192" viewBox="0 0 192 192" fill="none" xmlns="http://www.w3.org/2000/svg">
<path d="M96 146.098C117.6 146.098 135.098 128.6 135.098 107C135.098 85.4 117.6 67.9018 96 67.9018C74.4 67.9018 56.9018 85.4 56.9018 107C56.9018 128.6 74.4 146.098 96 146.098Z" fill="black"/>
<path fill-rule="evenodd" clip-rule="evenodd" d="M145.396 35.8727H175.462C184.538 35.8727 192 43.3782 192 52.4982V165.036C192 174.2 184.538 181.662 175.462 181.662H16.5382C7.46182 181.662 0 174.2 0 165.036V52.4982C0 43.3782 7.46182 35.8727 16.5382 35.8727H46.6036L67.5055 14.9709C69.8618 12.44 73.1346 11 76.5382 11H115.593C119.04 11 122.313 12.44 124.669 14.9709L145.396 35.8727ZM168.873 67.9018C173.804 67.9018 177.775 63.9309 177.775 59C177.775 54.1127 173.804 50.0982 168.873 50.0982C163.985 50.0982 160.015 54.1127 160.015 59C160.015 63.9309 163.985 67.9018 168.873 67.9018ZM96 160.324C66.5455 160.324 42.6764 136.455 42.6764 107C42.6764 77.5455 66.5455 53.6764 96 53.6764C125.455 53.6764 149.324 77.5455 149.324 107C149.324 136.455 125.455 160.324 96 160.324Z" fill="black"/>
</svg>
