<svg width="192" height="192" viewBox="0 0 192 192" fill="none" xmlns="http://www.w3.org/2000/svg">
<g clip-path="url(#clip0_1_2)">
<path d="M8.40184 183.598C13.9999 189.196 20.8023 192 28.7995 192H163.2C171.198 192 178 189.196 183.598 183.598C189.196 178 192 171.198 192 163.2V149.401C192 141.798 189.101 134.753 183.298 128.255C177.5 121.753 169.998 116.098 160.801 111.299C151.6 106.501 141.199 102.745 129.598 100.041C117.997 97.3471 106.401 96 94.8004 96C83.1997 96 71.7513 97.3471 60.4552 100.041C49.1544 102.745 39.0007 106.449 29.9991 111.142C21.0022 115.845 13.7524 121.448 8.25904 127.941C2.75143 134.449 0 141.498 0 149.101V163.2C0 171.198 2.80379 178 8.40184 183.598Z" fill="black"/>
<path d="M64.6633 71.6989C72.8652 79.9008 82.7665 83.9994 94.3625 83.9994C105.963 83.9994 115.865 79.9008 124.062 71.6989C132.264 63.5018 136.362 53.6004 136.362 41.9997C136.362 30.399 132.311 20.5024 124.209 12.3005C116.112 4.09857 106.163 0 94.3625 0C82.7665 0 72.8652 4.09857 64.6633 12.3005C56.4661 20.5024 52.3628 30.399 52.3628 41.9997C52.3628 53.6004 56.4661 63.5018 64.6633 71.6989Z" fill="black"/>
</g>
<defs>
<clipPath id="clip0_1_2">
<rect width="192" height="192" fill="white"/>
</clipPath>
</defs>
</svg>
