<svg width="192" height="192" viewBox="0 0 192 192" fill="none" xmlns="http://www.w3.org/2000/svg">
<path d="M187.796 132.957C185.178 119.868 183.026 115.854 170.576 115.621C158.535 116.145 152.077 116.086 143.933 115.272C134.742 114.283 133.229 114.923 128.634 121.031L115.196 144.009C78.0813 130.979 56.15 104.045 46.0861 88.4542L63.2471 71.4676C68.4827 65.8248 69.5298 61.2292 67.0866 52.2123C64.9923 44.2426 62.7818 35.4585 61.3274 23.3585C59.175 11.0258 57.3135 8.52435 44.1082 8.00079H23.0495C8.79713 7.88445 -0.394211 20.5662 0.0130004 34.8768C0.652904 55.5282 3.56157 76.0051 9.61157 88.745C27.3544 125.859 60.9202 163.323 113.101 179.088C126.947 183.218 144.806 186.069 168.657 182.927C182.793 181.008 194.02 170.129 191.693 155.993L187.796 132.957Z" fill="black"/>
</svg>
