<svg width="192" height="192" viewBox="0 0 192 192" fill="none" xmlns="http://www.w3.org/2000/svg">
<path d="M162.642 35.1869C150.028 29.4116 136.711 25.3144 123.031 23C121.159 26.3463 119.466 29.7892 117.957 33.3143C103.386 31.1186 88.568 31.1186 73.9969 33.3143C72.4876 29.7896 70.7939 26.3467 68.9228 23C55.2347 25.334 41.9088 29.4409 29.2815 35.2171C4.21315 72.3063 -2.58249 108.474 0.815332 144.129C15.496 154.976 31.9279 163.225 49.3966 168.518C53.3301 163.227 56.8107 157.615 59.8015 151.74C54.1209 149.618 48.638 147.001 43.4165 143.917C44.7907 142.921 46.1347 141.894 47.4335 140.897C62.627 148.042 79.2099 151.747 95.9997 151.747C112.789 151.747 129.372 148.042 144.566 140.897C145.88 141.969 147.224 142.996 148.583 143.917C143.351 147.006 137.858 149.628 132.168 151.755C135.155 157.627 138.636 163.235 142.572 168.518C160.056 163.246 176.501 155.001 191.184 144.144C195.171 102.796 184.373 66.9604 162.642 35.1869ZM64.1054 122.202C54.6368 122.202 46.8143 113.609 46.8143 103.038C46.8143 92.4667 54.365 83.7985 64.0752 83.7985C73.7855 83.7985 81.5476 92.4667 81.3815 103.038C81.2154 113.609 73.7553 122.202 64.1054 122.202ZM127.894 122.202C118.41 122.202 110.618 113.609 110.618 103.038C110.618 92.4667 118.169 83.7985 127.894 83.7985C137.619 83.7985 145.321 92.4667 145.155 103.038C144.989 113.609 137.544 122.202 127.894 122.202Z" fill="black"/>
</svg>
