<svg width="192" height="192" viewBox="0 0 192 192" fill="none" xmlns="http://www.w3.org/2000/svg">
<g clip-path="url(#clip0_0_3)">
<path d="M0 96.5364C0 144.268 34.6666 183.956 79.9999 192V123.352H55.9999V96.5364H79.9999V75.0837C79.9999 50.9497 95.4664 37.5418 117.334 37.5418C124.267 37.5418 131.733 38.6144 138.666 39.6871V64.3575H126.4C114.666 64.3575 112 70.2569 112 77.7656V96.5364H137.6L133.334 123.352H112V192C157.334 183.956 192 144.268 192 96.5364C192 43.4413 148.8 0 95.9999 0C43.1999 0 0 43.4413 0 96.5364Z" fill="black"/>
</g>
<defs>
<clipPath id="clip0_0_3">
<rect width="192" height="192" fill="white"/>
</clipPath>
</defs>
</svg>
