<svg width="192" height="166" viewBox="0 0 192 166" fill="none" xmlns="http://www.w3.org/2000/svg">
<path fill-rule="evenodd" clip-rule="evenodd" d="M13.092 0C5.85569 0 0 5.85569 0 13.092V152.772C0 159.96 5.85569 165.864 13.092 165.864H178.908C186.144 165.864 192 159.96 192 152.772V13.092C192 5.85569 186.144 0 178.908 0H13.092ZM157.104 34.9437H34.8961V65.4599C77.9807 65.4599 114.829 92.7389 129.016 130.92H157.104V34.9437ZM34.8961 130.92V100.404C58.1761 100.404 78.6471 112.591 90.2633 130.92H34.8961Z" fill="black"/>
<path d="M146.202 65.4599C146.202 76.3144 137.394 85.1217 126.54 85.1217C115.733 85.1217 106.926 76.3144 106.926 65.4599C106.926 54.6531 115.733 45.8458 126.54 45.8458C137.394 45.8458 146.202 54.6531 146.202 65.4599Z" fill="black"/>
</svg>
