<svg width="192" height="192" viewBox="0 0 192 192" fill="none" xmlns="http://www.w3.org/2000/svg">
<path fill-rule="evenodd" clip-rule="evenodd" d="M13.092 13C5.85569 13 0 18.8557 0 26.092V165.772C0 172.96 5.85569 178.864 13.092 178.864H178.908C186.144 178.864 192 172.96 192 165.772V26.092C192 18.8557 186.144 13 178.908 13H13.092ZM157.104 47.9437H34.8961V78.4599C77.9807 78.4599 114.829 105.739 129.016 143.92H157.104V47.9437ZM34.8961 143.92V113.404C58.1761 113.404 78.6471 125.591 90.2633 143.92H34.8961Z" fill="black"/>
<path d="M146.202 78.4599C146.202 89.3144 137.394 98.1217 126.54 98.1217C115.733 98.1217 106.926 89.3144 106.926 78.4599C106.926 67.6531 115.733 58.8458 126.54 58.8458C137.394 58.8458 146.202 67.6531 146.202 78.4599Z" fill="black"/>
</svg>
