<svg width="192" height="192" viewBox="0 0 192 192" fill="none" xmlns="http://www.w3.org/2000/svg">
<path fill-rule="evenodd" clip-rule="evenodd" d="M96 2C42.96 2 0 45.0455 0 98.1911C0 140.756 27.48 176.707 65.64 189.453C70.44 190.294 72.24 187.409 72.24 184.884C72.24 182.599 72.12 175.024 72.12 166.968C48 171.417 41.76 161.076 39.84 155.665C38.76 152.9 34.08 144.363 30 142.078C26.64 140.275 21.84 135.826 29.88 135.706C37.44 135.586 42.84 142.68 44.64 145.565C53.28 160.114 67.08 156.026 72.6 153.501C73.44 147.249 75.96 143.04 78.72 140.636C57.36 138.231 35.04 129.934 35.04 93.1411C35.04 82.6806 38.76 74.0231 44.88 67.2896C43.92 64.8848 40.56 55.0256 45.84 41.799C45.84 41.799 53.88 39.2742 72.24 51.6586C79.92 49.4943 88.08 48.4121 96.24 48.4121C104.4 48.4121 112.56 49.4943 120.24 51.6586C138.6 39.1537 146.64 41.799 146.64 41.799C151.92 55.0256 148.56 64.8848 147.6 67.2896C153.72 74.0231 157.44 82.5601 157.44 93.1411C157.44 130.054 135 138.231 113.64 140.636C117.12 143.641 120.12 149.413 120.12 158.431C120.12 171.296 120 181.637 120 184.884C120 187.409 121.8 190.414 126.6 189.453C164.52 176.707 192 140.636 192 98.1911C192 45.0455 149.04 2 96 2Z" fill="black"/>
</svg>
