<svg width="192" height="192" viewBox="0 0 192 192" fill="none" xmlns="http://www.w3.org/2000/svg">
<path d="M170.182 22C165.818 22 160.582 23.7455 156.218 27.2364L96 76.9818L35.7818 27.2364C31.4182 23.7455 26.1818 22 21.8182 22C10.4727 22 0 30.7273 0 43.8182V152.909C0 162.509 7.85455 170.364 17.4545 170.364H52.3636V109.273L96 144.182L139.636 109.273V170.364H174.545C184.145 170.364 192 162.509 192 152.909V43.8182C192 30.7273 181.527 22 170.182 22ZM174.545 152.909H157.091V72.6182L96 122.364L34.9091 72.6182V152.909H17.4545V43.6436C17.4545 39.9782 21.7309 37.9709 24.6109 40.24L96 98.8L167.389 40.24C170.269 37.9709 174.545 39.9782 174.545 43.6436V152.909Z" fill="white"/>
</svg>
