<svg width="192" height="192" viewBox="0 0 192 192" fill="none" xmlns="http://www.w3.org/2000/svg">
<path d="M100.692 150.535C92.3069 143.665 82.1039 134.271 70.3853 117.4C58.6667 100.53 53.5145 87.5983 49.9787 77.2945C42.5033 55.1707 39.2705 44.2603 33.7145 25.2679C33.1085 22.6417 32.9063 19.8127 33.1085 17.1866C6.33772 48.1999 10.0751 98.0035 38.8667 139.726C67.6577 181.347 112.612 202.056 150.596 187.206C148.172 186.6 145.949 185.59 143.828 184.176C127.766 172.053 118.775 165.285 100.692 150.535Z" fill="black"/>
<path d="M172.317 150.838L150.597 126.391C144.334 119.32 133.626 118.815 126.656 125.078C126.656 125.078 112.917 137.908 105.441 144.676C123.423 159.425 132.414 166.194 147.769 177.71C147.87 177.811 147.971 177.811 148.072 177.912C154.436 182.054 163.124 180.842 169.085 176.7C169.59 176.296 170.095 175.993 170.6 175.588L171.206 174.982C178.076 168.517 178.479 157.809 172.317 150.838Z" fill="black"/>
<path d="M49.1711 3.24553C43.2113 7.48873 39.1703 15.3679 40.8875 22.8439C40.8875 22.9447 40.8875 23.0455 40.9889 23.1469C46.3427 41.7349 49.5755 52.5439 57.1523 74.7691C65.9411 70.0207 82.5083 61.3327 82.5083 61.3327C90.7925 56.8879 93.8231 46.4827 89.4791 38.1991L74.2247 9.10454C69.8807 0.820937 59.7785 -2.41186 51.5957 1.93214L49.1711 3.24553Z" fill="black"/>
</svg>
