<svg width="192" height="192" viewBox="0 0 192 192" fill="none" xmlns="http://www.w3.org/2000/svg">
<path d="M181.292 114.406L123.676 147.669L112.671 84.8491C109.799 68.1541 95.3176 56.0041 78.3813 56.0041H20V21.2846C20 4.92511 37.7136 -5.30214 51.8804 2.87966L181.292 77.5918C195.459 85.7736 195.459 106.224 181.292 114.406Z" fill="black"/>
<path d="M52.3468 95.9804C52.3468 101.544 47.859 106.032 42.2954 106.032C36.7891 106.032 32.3013 101.544 32.3013 95.9804C32.3013 90.4741 36.7891 85.9864 42.2954 85.9864C47.859 85.9864 52.3468 90.4741 52.3468 95.9804Z" fill="black"/>
<path d="M71.439 115.13C71.439 120.694 66.9513 125.124 61.4449 125.124C55.8813 125.124 51.3895 120.694 51.3895 115.13C51.3895 109.624 55.8813 105.136 61.4449 105.136C66.9513 105.136 71.439 109.624 71.439 115.13Z" fill="black"/>
<path d="M71.439 76.8882C71.439 82.3945 66.9513 86.8823 61.4449 86.8823C55.8813 86.8823 51.3895 82.3945 51.3895 76.8882C51.3895 71.3246 55.8813 66.8368 61.4449 66.8368C66.9513 66.8368 71.439 71.3246 71.439 76.8882Z" fill="black"/>
<path d="M90.7685 95.9804C90.7685 101.544 86.2808 106.032 80.7744 106.032C75.2108 106.032 70.719 101.544 70.719 95.9804C70.719 90.4741 75.2108 85.9864 80.7744 85.9864C86.2808 85.9864 90.7685 90.4741 90.7685 95.9804Z" fill="black"/>
<path d="M91.689 166.139L51.8804 189.122C37.7136 197.3 20 187.077 20 170.713V135.957H61.5063L91.689 166.139Z" fill="black"/>
</svg>
