<svg width="192" height="192" viewBox="0 0 192 192" fill="none" xmlns="http://www.w3.org/2000/svg">
<path d="M117.19 11H74.9555C68.5754 11 62.6445 14.4147 59.4095 19.8962L2.4376 117.935C-0.797394 123.506 -0.797402 130.335 2.34774 135.907L23.4651 172.66C26.7001 178.231 32.6309 181.646 39.0111 181.646H152.955C159.425 181.646 165.356 178.231 168.501 172.66L189.618 135.907C192.853 130.335 192.763 123.506 189.528 117.935L132.736 19.8962C129.501 14.4147 123.57 11 117.19 11ZM153.045 163.764H39.1009L17.9836 127.011L74.9555 28.9722H117.19L174.162 127.011L153.045 163.764ZM104.16 58.1771H87.9853L46.829 129.886L53.3888 141.299H138.757L145.317 129.886L104.16 58.1771ZM71.361 123.326L96.0728 80.193L120.785 123.326H71.361Z" fill="black"/>
</svg>
