<svg width="192" height="192" viewBox="0 0 192 192" fill="none" xmlns="http://www.w3.org/2000/svg">
<g clip-path="url(#clip0_1_2)">
<path d="M82.7018 102.233C85.9746 98.9518 85.9746 93.6456 82.7018 90.3641L34.5006 42.032L17.1942 24.743C17.072 25.7554 16.9848 26.8551 17.0022 27.9285L17.011 164.355C17.0546 165.638 17.2379 167.13 17.4386 168.413C28.8365 157.251 70.789 114.373 82.7018 102.233Z" fill="black"/>
<path d="M177.193 71.6526L151.578 56.9034C144.073 64.3478 125.824 82.7015 118.152 90.3728C114.88 93.6543 114.88 98.9606 118.152 102.242C125.867 109.922 143.811 127.997 151.36 135.485L176.957 120.823C196.306 111.223 196.454 81.4186 177.193 71.6526Z" fill="black"/>
<path d="M106.344 114.059C103.08 110.786 97.7653 110.786 94.51 114.059C85.9484 122.638 32.2838 176.442 25.0576 183.633C33.4446 192.57 48.6302 194.735 59.2689 188.242L136.332 144.081C129.219 136.994 113.553 121.294 106.344 114.059Z" fill="black"/>
<path d="M94.51 78.5473C97.774 81.82 103.08 81.82 106.344 78.5473L124.34 60.5078L124.323 60.4991L136.567 48.2633L59.5743 3.92828C48.7175 -2.87034 33.078 -0.540139 24.6561 8.57123C31.7166 15.588 86.0968 70.1254 94.51 78.5473Z" fill="black"/>
</g>
<defs>
<clipPath id="clip0_1_2">
<rect width="192" height="192" fill="white"/>
</clipPath>
</defs>
</svg>
