<svg width="192" height="192" viewBox="0 0 192 192" fill="none" xmlns="http://www.w3.org/2000/svg">
<g clip-path="url(#clip0_1_2)">
<path d="M46.7874 82.8789C49.6871 72.0308 56.0813 62.4432 64.9788 55.6026C73.8764 48.7621 84.7798 45.0503 95.9989 45.0434H177.228C169.052 31.958 157.842 21.0416 144.549 13.2215C131.256 5.40082 116.274 0.908065 100.875 0.123862C85.4752 -0.660341 70.1148 2.28803 56.0978 8.71753C42.0802 15.147 29.8206 24.8687 20.3603 37.0561L46.7874 82.8789Z" fill="black"/>
<path d="M109.182 145.357C98.3493 148.312 86.8432 147.582 76.4694 143.282C66.0961 138.982 57.4428 131.356 51.8684 121.601L51.8199 121.628L11.1705 51.1547C3.94544 64.7931 0.114528 79.9749 0.00252861 95.4112C-0.109471 110.848 3.50065 126.084 10.5273 139.826C17.5534 153.568 27.7885 165.41 40.3634 174.347C52.9383 183.285 67.4817 189.054 82.7595 191.164L109.182 145.357Z" fill="black"/>
<path d="M132.119 60.0564C140.044 67.9972 145.126 78.336 146.574 89.4659C148.023 100.596 145.757 111.893 140.129 121.601L140.185 121.633L99.5994 192C115.003 191.45 130.046 187.188 143.453 179.577C156.859 171.966 168.233 161.23 176.611 148.281C184.988 135.331 190.121 120.549 191.573 105.191C193.026 89.8321 190.756 74.3493 184.955 60.0564H132.119Z" fill="black"/>
<path d="M95.9994 132.127C115.881 132.127 131.999 115.994 131.999 96.0929C131.999 76.1921 115.881 60.0591 95.9994 60.0591C76.1174 60.0591 59.9996 76.1921 59.9996 96.0929C59.9996 115.994 76.1174 132.127 95.9994 132.127Z" fill="black"/>
</g>
<defs>
<clipPath id="clip0_1_2">
<rect width="192" height="192" fill="white"/>
</clipPath>
</defs>
</svg>
