<svg width="189" height="192" viewBox="0 0 189 192" fill="none" xmlns="http://www.w3.org/2000/svg">
<path d="M96 192C82.72 192 70.24 189.478 58.56 184.435C46.88 179.398 36.72 172.56 28.08 163.92C19.44 155.28 12.6016 145.12 7.5648 133.44C2.5216 121.76 0 109.28 0 96C0 82.72 2.5216 70.24 7.5648 58.56C12.6016 46.88 19.44 36.72 28.08 28.08C36.72 19.44 46.88 12.6016 58.56 7.5648C70.24 2.5216 82.72 0 96 0C108.16 0 119.638 2.1216 130.435 6.3648C141.238 10.6016 151.2 16.8 160.32 24.96L132.96 51.6C128 46.96 122.358 43.4016 116.035 40.9248C109.718 38.4416 103.04 37.2 96 37.2C80 37.2 66.4 42.9184 55.2 54.3552C44 65.7984 38.4 79.68 38.4 96C38.4 112.32 44 126.198 55.2 137.635C66.4 149.078 80 154.8 96 154.8C109.6 154.8 121.318 150.998 131.155 143.395C140.998 135.798 146.88 126.08 148.8 114.24H96V78.48H185.76C186.56 82.16 187.162 85.4784 187.565 88.4352C187.962 91.3984 188.16 94.64 188.16 98.16C188.16 126.16 179.68 148.8 162.72 166.08C145.76 183.36 123.52 192 96 192Z" fill="white"/>
</svg>
