<svg width="192" height="192" viewBox="0 0 192 192" fill="none" xmlns="http://www.w3.org/2000/svg">
<path d="M174.506 44.833C164.002 34.6274 149.754 28.2599 133.888 28.2599H73.2618C41.1262 28.2599 15.1594 54.2325 15.1594 86.3623C15.1594 91.9236 15.9656 97.3799 17.4786 102.632C20.2067 111.827 25.1606 120.414 32.1357 127.29L90.9449 187.413C92.1541 188.722 93.4685 189.937 95.9922 189.937C98.4223 189.937 101.045 188.722 101.045 185.491V144.465H132.977C164.808 144.465 191.482 119.205 191.99 87.3729C192.294 70.7004 185.523 55.6462 174.506 44.833Z" fill="black"/>
<path d="M73.2618 20.6831H133.888C146.015 20.6831 157.734 24.0187 167.94 30.1818C157.635 13.8131 139.443 3 118.728 3H58.1024C25.9667 3 0 28.9667 0 61.1024C0 71.6117 2.82743 81.5136 7.68195 90.0017C7.57679 88.7866 7.5768 87.5773 7.5768 86.3622C7.5768 50.1899 37.0836 20.6831 73.2618 20.6831Z" fill="black"/>
</svg>
