<svg width="192" height="192" viewBox="0 0 192 192" fill="none" xmlns="http://www.w3.org/2000/svg">
<g clip-path="url(#clip0_1_2)">
<path d="M179.345 87.2727H138.938C147.229 78.0218 152.378 65.8036 152.378 52.3636C152.378 23.4764 128.902 0 100.015 0C92.9454 0 87.2727 5.67272 87.2727 12.6545V53.0618C78.0218 44.7709 65.8036 39.7091 52.3636 39.7091C23.4764 39.7091 0 63.1855 0 92.0727C0 99.0546 5.67273 104.727 12.7418 104.727H53.1491C44.8582 113.978 39.7091 126.196 39.7091 139.636C39.7091 168.524 63.1855 192 92.0727 192C99.0546 192 104.727 186.327 104.727 179.345V138.938C113.978 147.229 126.196 152.378 139.636 152.378C168.524 152.378 192 128.902 192 100.015C192 92.9454 186.327 87.2727 179.345 87.2727ZM104.727 17.8036C121.745 20.0727 134.924 34.7345 134.924 52.3636C134.924 69.9927 121.745 84.6545 104.815 86.9236V17.8036H104.727ZM52.3636 57.1636C69.9927 57.1636 84.6545 70.3418 86.9236 87.2727H17.8036C20.0727 70.2545 34.7345 57.1636 52.3636 57.1636ZM87.2727 174.196C70.2545 171.927 57.1636 157.265 57.1636 139.636C57.1636 122.007 70.3418 107.345 87.2727 105.076V174.196ZM139.636 134.836C122.007 134.836 107.345 121.658 105.076 104.727H174.284C171.927 121.745 157.265 134.836 139.636 134.836Z" fill="black"/>
</g>
<defs>
<clipPath id="clip0_1_2">
<rect width="192" height="192" fill="white"/>
</clipPath>
</defs>
</svg>
