<svg width="192" height="192" viewBox="0 0 192 192" fill="none" xmlns="http://www.w3.org/2000/svg">
<path d="M95.8426 75.7867C116.771 75.7867 133.731 58.8267 133.731 37.8987C133.731 16.9707 116.771 0 95.8426 0C74.9146 0 57.944 16.9707 57.944 37.8987C57.944 58.8267 74.9146 75.7867 95.8426 75.7867Z" fill="black"/>
<path d="M136.259 96H105.944H90.7866C68.4613 96 50.3706 114.091 50.3706 136.427V181.899C50.3706 187.456 54.9146 192 60.472 192H105.944H136.259C158.595 192 176.685 173.909 176.685 151.584V136.427C176.685 114.091 158.595 96 136.259 96Z" fill="black"/>
<path d="M42.7867 136.427C42.7867 120.352 50.776 106.005 63 97.312C35.512 103.179 15 127.424 15 156.629V181.899C15 186.944 20.056 192 25.1013 192H46.0187C44.0027 189.173 42.7867 185.632 42.7867 181.899V136.427Z" fill="black"/>
</svg>
