<svg width="192" height="182" viewBox="0 0 192 182" fill="none" xmlns="http://www.w3.org/2000/svg">
<path d="M133.383 7.09356L172.187 0.255604C176.598 -0.520562 181.136 0.487209 184.804 3.05722C188.472 5.62723 190.968 9.54896 191.744 13.9597C192.521 18.3704 191.513 22.9088 188.943 26.5764C186.373 30.2441 182.451 32.7406 178.04 33.5168L139.236 40.3548L133.383 7.09356Z" fill="black" fill-opacity="0.498039"/>
<path d="M0 153.533C0 160.996 2.96472 168.154 8.24195 173.431C13.5192 178.708 20.6766 181.673 28.1398 181.673C35.6029 181.673 42.7604 178.708 48.0376 173.431C53.3148 168.154 56.2795 160.996 56.2795 153.533C56.2795 146.07 53.3148 138.912 48.0376 133.635C42.7604 128.358 35.6029 125.393 28.1398 125.393C20.6766 125.393 13.5192 128.358 8.24195 133.635C2.96472 138.912 0 146.07 0 153.533Z" fill="black"/>
<path d="M39.3957 40.9739H56.2796V153.533H39.3957V40.9739Z" fill="black"/>
<path d="M94.9155 14.1567L133.72 7.31869L139.573 40.5799L100.769 47.4179L94.9155 14.1567Z" fill="black"/>
<path d="M39.3957 40.9739C39.3957 45.4517 41.1745 49.7462 44.3409 52.9125C47.5072 56.0789 51.8017 57.8577 56.2796 57.8577C60.7574 57.8577 65.0519 56.0789 68.2182 52.9125C71.3846 49.7462 73.1634 45.4517 73.1634 40.9739C73.1634 36.496 71.3846 32.2015 68.2182 29.0352C65.0519 25.8688 60.7574 24.09 56.2796 24.09C51.8017 24.09 47.5072 25.8688 44.3409 29.0352C41.1745 32.2015 39.3957 36.496 39.3957 40.9739Z" fill="black"/>
<path d="M81.6053 30.6466C81.6053 35.1244 83.3842 39.4189 86.5505 42.5853C89.7168 45.7516 94.0113 47.5304 98.4892 47.5304C102.967 47.5304 107.262 45.7516 110.428 42.5853C113.594 39.4189 115.373 35.1244 115.373 30.6466C115.373 26.1687 113.594 21.8742 110.428 18.7079C107.262 15.5415 102.967 13.7627 98.4892 13.7627C94.0113 13.7627 89.7168 15.5415 86.5505 18.7079C83.3842 21.8742 81.6053 26.1687 81.6053 30.6466Z" fill="black"/>
<path d="M95.6752 136.649C95.6752 144.112 98.6399 151.27 103.917 156.547C109.194 161.824 116.352 164.789 123.815 164.789C131.278 164.789 138.436 161.824 143.713 156.547C148.99 151.27 151.955 144.112 151.955 136.649C151.955 129.186 148.99 122.028 143.713 116.751C138.436 111.474 131.278 108.509 123.815 108.509C116.352 108.509 109.194 111.474 103.917 116.751C98.6399 122.028 95.6752 129.186 95.6752 136.649Z" fill="black"/>
<path d="M135.071 24.09H151.955V136.649H135.071V24.09Z" fill="black"/>
<path d="M118.187 24.09C118.187 28.5679 119.966 32.8624 123.132 36.0287C126.299 39.195 130.593 40.9739 135.071 40.9739C139.549 40.9739 143.843 39.195 147.01 36.0287C150.176 32.8624 151.955 28.5679 151.955 24.09C151.955 19.6121 150.176 15.3176 147.01 12.1513C143.843 8.98496 139.549 7.20613 135.071 7.20613C130.593 7.20613 126.299 8.98496 123.132 12.1513C119.966 15.3176 118.187 19.6121 118.187 24.09Z" fill="black"/>
</svg>
