<svg width="192" height="192" viewBox="0 0 192 192" fill="none" xmlns="http://www.w3.org/2000/svg">
<path d="M95.9994 0C69.9284 0 66.6584 0.111089 56.4192 0.577237C46.2013 1.0438 39.2231 2.66688 33.1154 5.04C26.8033 7.49252 21.4498 10.7757 16.1128 16.1128C10.7757 21.4498 7.49252 26.8033 5.04 33.1154C2.66688 39.2231 1.0438 46.2013 0.577237 56.4192C0.111089 66.6584 0 69.9284 0 95.9994C0 122.072 0.111089 125.342 0.577237 135.58C1.0438 145.799 2.66688 152.776 5.04 158.884C7.49252 165.196 10.7757 170.55 16.1128 175.886C21.4498 181.223 26.8033 184.507 33.1154 186.96C39.2231 189.333 46.2013 190.956 56.4192 191.422C66.6584 191.889 69.9284 192 95.9994 192C122.072 192 125.342 191.889 135.58 191.422C145.799 190.956 152.776 189.333 158.884 186.96C165.196 184.507 170.55 181.223 175.886 175.886C181.223 170.55 184.507 165.196 186.96 158.884C189.333 152.776 190.956 145.799 191.422 135.58C191.889 125.342 192 122.072 192 95.9994C192 69.9284 191.889 66.6584 191.422 56.4192C190.956 46.2013 189.333 39.2231 186.96 33.1154C184.507 26.8033 181.223 21.4498 175.886 16.1128C170.55 10.7757 165.196 7.49252 158.884 5.04C152.776 2.66688 145.799 1.0438 135.58 0.577237C125.342 0.111089 122.072 0 95.9994 0ZM96.0002 17.2985C121.633 17.2985 124.67 17.396 134.792 17.8576C144.152 18.2839 149.235 19.8481 152.618 21.1622C157.1 22.9038 160.297 24.9844 163.657 28.3445C167.016 31.703 169.097 34.9006 170.838 39.3827C172.153 42.7655 173.717 47.8487 174.143 57.2075C174.605 67.3306 174.703 70.367 174.703 96.0002C174.703 121.633 174.605 124.67 174.143 134.792C173.717 144.152 172.153 149.235 170.838 152.618C169.097 157.1 167.016 160.297 163.657 163.657C160.297 167.016 157.1 169.097 152.618 170.838C149.235 172.153 144.152 173.717 134.792 174.143C124.672 174.605 121.635 174.703 96.0002 174.703C70.3653 174.703 67.3294 174.605 57.2091 174.143C47.8491 173.717 42.7655 172.153 39.3827 170.838C34.9006 169.097 31.703 167.016 28.3445 163.657C24.9844 160.297 22.9038 157.1 21.1622 152.618C19.8481 149.235 18.2839 144.152 17.8576 134.793C17.396 124.67 17.2985 121.633 17.2985 96.0002C17.2985 70.367 17.396 67.3311 17.8576 57.2091C18.2839 47.8491 19.8481 42.7655 21.1622 39.3827C22.9038 34.9006 24.9844 31.703 28.3445 28.3445C31.703 24.9844 34.9006 22.9038 39.3827 21.1622C42.7655 19.8481 47.8487 18.2839 57.2075 17.8576C67.3306 17.396 70.367 17.2985 96.0002 17.2985Z" fill="white"/>
<path d="M96.0027 46.7049C68.776 46.7049 46.7049 68.776 46.7049 96.0027C46.7049 123.228 68.776 145.3 96.0027 145.3C123.229 145.3 145.3 123.228 145.3 96.0027C145.3 68.776 123.229 46.7049 96.0027 46.7049ZM96.0006 128.001C78.3277 128.001 64.0009 113.676 64.0009 96.0014C64.0009 78.3285 78.3277 64.0009 96.0006 64.0009C113.674 64.0009 128 78.3285 128 96.0014C128 113.676 113.674 128.001 96.0006 128.001Z" fill="white"/>
<path d="M147.246 56.2739C153.61 56.2739 158.766 51.1171 158.766 44.7539C158.766 38.3912 153.61 33.2339 147.246 33.2339C140.883 33.2339 135.726 38.3912 135.726 44.7539C135.726 51.1171 140.883 56.2739 147.246 56.2739Z" fill="white"/>
</svg>
