<svg width="192" height="192" viewBox="0 0 192 192" fill="none" xmlns="http://www.w3.org/2000/svg">
<path d="M88.781 121.089L22.3151 154.324C16.6924 157.158 14.4068 164.016 17.1953 169.685C20.0294 175.308 26.8863 177.593 32.5547 174.805L105.832 138.141L88.781 121.089Z" fill="black"/>
<path fill-rule="evenodd" clip-rule="evenodd" d="M19.8923 173.159C15.1382 168.999 14.6811 161.776 18.8409 157.021L82.8384 83.8763C86.9982 79.1218 94.2208 78.6647 98.9749 82.8248C103.729 86.9849 104.186 94.208 100.026 98.9624L36.0288 172.107C31.869 176.862 24.6464 177.319 19.8923 173.159Z" fill="black"/>
<path fill-rule="evenodd" clip-rule="evenodd" d="M19.3438 19.3258C23.8236 14.8914 31.0462 14.8914 35.526 19.3258L172.663 156.473C177.097 160.953 177.097 168.176 172.663 172.656C168.184 177.09 160.961 177.09 156.481 172.656L19.3438 35.5091C14.9097 31.029 14.9097 23.8059 19.3438 19.3258Z" fill="black"/>
<path d="M138.15 121.957L116.62 132.746L99.5691 115.74L121.1 104.951L138.15 121.957Z" fill="black"/>
<path d="M138.15 121.957L169.692 106.231C175.315 103.397 177.6 96.5395 174.812 90.8708C171.978 85.2477 165.121 82.962 159.452 85.7506L121.1 104.951L138.15 121.957Z" fill="black"/>
</svg>
