<svg width="192" height="192" viewBox="0 0 192 192" fill="none" xmlns="http://www.w3.org/2000/svg">
<g clip-path="url(#clip0_1_2)">
<path d="M87.3372 126.107L7.5781 165.989C0.83094 169.39 -1.91182 177.619 1.43433 184.421C4.83534 191.169 13.0636 193.912 19.8656 190.566L107.798 146.569L87.3372 126.107Z" fill="black"/>
<path fill-rule="evenodd" clip-rule="evenodd" d="M4.67079 188.591C-1.03413 183.598 -1.58267 174.931 3.40913 169.226L80.2061 81.4515C85.1979 75.7462 93.865 75.1976 99.5699 80.1898C105.275 85.1819 105.823 93.8496 100.832 99.5549L24.0346 187.329C19.0428 193.034 10.3757 193.583 4.67079 188.591Z" fill="black"/>
<path fill-rule="evenodd" clip-rule="evenodd" d="M4.01252 3.99097C9.38831 -1.33032 18.0554 -1.33032 23.4312 3.99097L187.996 168.567C193.317 173.943 193.317 182.611 187.996 187.987C182.62 193.308 173.953 193.308 168.577 187.987L4.01252 23.411C-1.30841 18.0348 -1.30841 9.36713 4.01252 3.99097Z" fill="black"/>
<path d="M146.581 127.149L120.744 140.096L100.283 119.688L126.12 106.741L146.581 127.149Z" fill="black"/>
<path d="M146.581 127.149L184.43 108.277C191.178 104.876 193.92 96.6474 190.574 89.8449C187.173 83.0973 178.945 80.3543 172.143 83.7007L126.12 106.741L146.581 127.149Z" fill="black"/>
</g>
<defs>
<clipPath id="clip0_1_2">
<rect width="192" height="192" fill="white"/>
</clipPath>
</defs>
</svg>
