<svg width="140" height="192" viewBox="0 0 140 192" fill="none" xmlns="http://www.w3.org/2000/svg">
<path d="M69.6 91.68C75.6816 91.68 80.7984 89.5584 84.96 85.32C89.1216 81.0816 91.2 75.9984 91.2 70.08C91.2 63.9984 89.1216 58.8816 84.96 54.72C80.7984 50.5584 75.6816 48.48 69.6 48.48C63.6816 48.48 58.5984 50.5584 54.36 54.72C50.1216 58.8816 48 63.9984 48 70.08C48 75.9984 50.1216 81.0816 54.36 85.32C58.5984 89.5584 63.6816 91.68 69.6 91.68ZM69.6 192C66.3984 192 64.1184 191.078 62.76 189.24C61.4016 187.402 60.1584 184.958 59.04 181.92C55.0416 170.4 49.7184 160.32 43.08 151.68C36.6213 143.272 30.1011 134.912 23.52 126.6C17.2114 118.66 11.6667 110.142 6.96 101.16C2.3184 92.28 0 81.7584 0 69.6C0 50.5584 6.84001 34.2 20.52 20.52C34.2 6.84 50.5584 0 69.6 0C88.6416 0 105 6.84 118.68 20.52C132.36 34.2 139.2 50.5584 139.2 69.6C139.2 81.7584 136.92 92.2416 132.36 101.04C127.735 109.941 122.27 118.379 116.04 126.24C109.507 134.51 102.987 142.79 96.48 151.08C89.76 159.638 84.3216 169.92 80.16 181.92C79.0416 184.8 77.7984 187.2 76.44 189.12C75.0816 191.04 72.8016 192 69.6 192Z" fill="black"/>
</svg>
