<svg width="192" height="192" viewBox="0 0 192 192" fill="none" xmlns="http://www.w3.org/2000/svg">
<path d="M95.6 91.68C101.682 91.68 106.798 89.5584 110.96 85.32C115.122 81.0816 117.2 75.9984 117.2 70.08C117.2 63.9984 115.122 58.8816 110.96 54.72C106.798 50.5584 101.682 48.48 95.6 48.48C89.6816 48.48 84.5984 50.5584 80.36 54.72C76.1216 58.8816 74 63.9984 74 70.08C74 75.9984 76.1216 81.0816 80.36 85.32C84.5984 89.5584 89.6816 91.68 95.6 91.68ZM95.6 192C92.3984 192 90.1184 191.078 88.76 189.24C87.4016 187.402 86.1584 184.958 85.04 181.92C81.0416 170.4 75.7184 160.32 69.08 151.68C62.6213 143.272 56.1011 134.912 49.52 126.6C43.2114 118.66 37.6667 110.142 32.96 101.16C28.3184 92.28 26 81.7584 26 69.6C26 50.5584 32.84 34.2 46.52 20.52C60.2 6.84 76.5584 0 95.6 0C114.642 0 131 6.84 144.68 20.52C158.36 34.2 165.2 50.5584 165.2 69.6C165.2 81.7584 162.92 92.2416 158.36 101.04C153.735 109.941 148.27 118.379 142.04 126.24C135.507 134.51 128.987 142.79 122.48 151.08C115.76 159.638 110.322 169.92 106.16 181.92C105.042 184.8 103.798 187.2 102.44 189.12C101.082 191.04 98.8016 192 95.6 192Z" fill="black"/>
</svg>
