<svg width="192" height="192" viewBox="0 0 192 192" fill="none" xmlns="http://www.w3.org/2000/svg">
<path fill-rule="evenodd" clip-rule="evenodd" d="M7.25477 27H159.957C177.696 27 191.956 40.9863 192 58.9928V132.128C192 150.546 178.151 164.121 160.007 164.121H50.3107C34.3548 164.121 22.8865 148.034 22.8865 132.128L22.7931 72.7048L1.72007 37.9696C-2.20656 31.8428 0.990844 27 7.25477 27ZM54.8357 136.69H132.539C137.202 136.69 141.677 133.212 141.677 127.547C141.677 121.881 137.202 118.403 132.539 118.403H54.8357C50.1736 118.403 45.6984 121.881 45.6984 127.547C45.6984 133.212 50.1736 136.69 54.8357 136.69ZM159.964 104.698H54.8357C50.2172 104.698 45.6984 101.226 45.6984 95.5541C45.6984 89.8885 50.2172 86.4169 54.8357 86.4169H159.964C164.576 86.4169 169.107 89.8885 169.107 95.5541C169.107 101.226 164.576 104.698 159.964 104.698ZM54.8419 72.7048H159.97C164.582 72.7048 169.107 69.227 169.107 63.5614C169.107 57.8958 164.632 54.4179 160.013 54.4179H54.8419C50.2234 54.4179 45.6984 57.8958 45.6984 63.5614C45.6984 69.227 50.2234 72.7048 54.8419 72.7048Z" fill="black"/>
</svg>
