<svg width="192" height="192" viewBox="0 0 192 192" fill="none" xmlns="http://www.w3.org/2000/svg">
<g clip-path="url(#clip0_2_2)">
<path d="M0 93.12C0 39.6136 41.9204 0 96 0C150.08 0 192 39.6136 192 93.12C192 146.626 150.08 186.24 96 186.24C86.2864 186.24 76.9672 184.957 68.2108 182.549C66.5088 182.081 64.6988 182.214 63.0836 182.927L44.0288 191.338C39.0448 193.538 33.418 189.993 33.2512 184.548L32.7284 167.469C32.664 165.366 31.7176 163.399 30.1492 161.996C11.47 145.292 0 121.107 0 93.12ZM66.5528 75.6124L38.3524 120.352C35.6464 124.646 40.924 129.484 44.9668 126.416L75.2584 103.427C77.3076 101.872 80.1392 101.864 82.1968 103.407L104.626 120.229C111.356 125.277 120.962 123.504 125.448 116.388L153.648 71.6472C156.354 67.3536 151.076 62.5152 147.033 65.5832L116.742 88.5724C114.693 90.1276 111.861 90.136 109.804 88.592L87.3744 71.7704C80.644 66.7228 71.0384 68.4952 66.5528 75.6124Z" fill="black"/>
</g>
<defs>
<clipPath id="clip0_2_2">
<rect width="192" height="192" fill="white"/>
</clipPath>
</defs>
</svg>
