<svg width="188" height="192" viewBox="0 0 188 192" fill="none" xmlns="http://www.w3.org/2000/svg">
<path d="M173.447 192H79.9928C74.0386 191.914 68.3434 189.498 64.115 185.269L7.76629 127.453C2.76135 122.276 0 115.286 0 108.124V21.2279L29.9434 50.9986V124.951L58.4198 155.326V79.5614L94.0584 114.423L130.301 79.5614V148.422L173.447 192Z" fill="black"/>
<path d="M17.5174 0H107.347C113.302 0.0862921 118.997 2.41618 123.225 6.47191L179.66 62.907C184.665 67.9119 187.427 74.6427 187.427 81.6324V166.371L158.95 137.636V65.582L130.474 36.2427L93.5407 74.729L17.5174 0Z" fill="black"/>
<path d="M44.613 192L0 147.473V192H44.613Z" fill="black"/>
<path d="M142.727 0L187.34 44.613V0H142.727Z" fill="black"/>
</svg>
