<svg width="192" height="192" viewBox="0 0 192 192" fill="none" xmlns="http://www.w3.org/2000/svg">
<path fill-rule="evenodd" clip-rule="evenodd" d="M105.648 57.6H124.865C132.449 57.5826 136.39 55.6102 139.196 52.8C142.019 49.9767 144 46.032 144 38.3956V19.2C144 11.568 142.019 7.62327 139.196 4.79999C136.39 1.98981 132.449 0.0218158 124.865 0.00436124L124.813 0H124.787C94.0756 0.0130909 78.7069 7.98982 67.3484 19.3353C55.9811 30.6895 48 46.5949 48 77.3324V114.668C48 145.405 55.9811 161.315 67.3484 172.665C78.7069 184.015 94.0756 191.987 124.787 192H124.813H124.865C132.449 191.983 136.39 190.01 139.196 187.2C142.019 184.381 144 180.432 144 172.8V153.6C144 145.968 142.019 142.019 139.196 139.2C136.39 136.39 132.449 134.413 124.865 134.4L105.648 134.396C98.0116 134.396 94.0582 132.423 91.2349 129.6C88.416 126.781 86.4305 122.832 86.4305 115.2V76.8C86.4305 69.168 88.416 65.2189 91.2349 62.4C94.0582 59.5811 98.0116 57.6 105.648 57.6Z" fill="black"/>
</svg>
