<svg width="192" height="192" viewBox="0 0 192 192" fill="none" xmlns="http://www.w3.org/2000/svg">
<path fill-rule="evenodd" clip-rule="evenodd" d="M96.5014 0C107.354 0 117.58 6.72 121.42 17.447C123.465 23.1652 123.381 29.1757 121.545 34.5183L111.361 70.4557L137.614 43.7009C141.371 39.4435 146.588 36.3548 152.641 35.2278C163.952 33.1409 174.929 38.5252 180.397 47.833C185.865 57.1409 185.114 69.2452 177.642 77.9269C173.677 82.56 168.376 85.4817 162.783 86.6087L125.802 96.0417L162.741 105.517C168.376 106.643 173.635 109.565 177.601 114.24C185.072 122.922 185.781 135.026 180.272 144.334C174.804 153.642 163.827 158.984 152.515 156.856C146.463 155.729 141.287 152.64 137.531 148.383L111.402 121.67L121.545 157.482C123.381 162.824 123.465 168.835 121.42 174.553C117.58 185.28 107.354 192 96.5014 192C85.6075 192 75.3814 185.28 71.5414 174.553C69.4962 168.835 69.5797 162.824 71.4162 157.482L81.6005 121.544L55.3466 148.299C51.5901 152.557 46.3727 155.645 40.3205 156.772C29.0092 158.859 18.0318 153.475 12.564 144.167C7.09618 134.859 7.84748 122.755 15.3188 114.073C19.284 109.44 24.5849 106.518 30.1779 105.391L67.1588 95.9583L30.2197 86.4835C24.6266 85.3565 19.3258 82.4348 15.3605 77.76C7.93097 69.0783 7.17967 56.9739 12.6892 47.6661C18.1571 38.3583 29.1344 33.0156 40.4457 35.1443C46.4979 36.2713 51.6736 39.36 55.4301 43.6174L81.6005 70.3304L71.4162 34.5183C69.5797 29.1757 69.4962 23.1652 71.5414 17.447C75.3814 6.72 85.6075 0 96.5014 0ZM96.6684 75.1304C85.1484 75.1304 75.7988 84.48 75.7988 96C75.7988 107.52 85.1484 116.87 96.6684 116.87C108.188 116.87 117.538 107.52 117.538 96C117.538 84.48 108.188 75.1304 96.6684 75.1304Z" fill="black"/>
</svg>
