<svg width="230" height="230" viewBox="0 0 65.714 65.714" fill="none" xmlns="http://www.w3.org/2000/svg" transform="matrix(1,-1.2246467991473532e-16,1.2246467991473532e-16,1,0,0)" version="1.1" xmlns:xlink="http://www.w3.org/1999/xlink"><path d="M32.857 38.294a5.431 5.431 0 1 1 0-10.863 5.431 5.431 0 0 1 0 10.863M51 35.481l-10.116-2.618 10.119-2.6a7.244 7.244 0 0 0 4.817-10.729 7.242 7.242 0 0 0-11.704-1.145l-7.19 7.402 2.793-9.934a7.23 7.23 0 0 0-.038-4.726 7.25 7.25 0 0 0-6.826-4.823 7.245 7.245 0 0 0-6.862 9.552l2.784 9.901-7.154-7.391a7.243 7.243 0 0 0-11.707 1.125 7.242 7.242 0 0 0 4.798 10.738l10.116 2.618-10.119 2.601a7.245 7.245 0 0 0-4.817 10.729 7.243 7.243 0 0 0 11.704 1.144l7.19-7.401-2.792 9.933a7.243 7.243 0 0 0 13.688 4.725 7.23 7.23 0 0 0 .036-4.726l-2.785-9.902 7.155 7.391a7.241 7.241 0 1 0 6.909-11.861" fill="#000"></path></svg>