<svg width="192" height="192" viewBox="0 0 192 192" fill="none" xmlns="http://www.w3.org/2000/svg">
<g clip-path="url(#clip0_2_2)">
<path d="M99.8054 0.0761425C46.8039 -2.01512 2.20169 39.2273 0.0761425 92.1946C-2.01512 145.196 39.2273 189.798 92.1946 191.924C145.196 194.015 189.798 152.773 191.924 99.8054C194.015 46.8039 152.773 2.20169 99.8054 0.0761425ZM140.294 140.705C139.128 142.796 136.831 143.893 134.534 143.551C133.848 143.448 133.163 143.242 132.511 142.831C119.792 135.631 105.976 130.934 91.4403 128.877C76.8358 126.82 62.2655 127.54 48.0381 130.969C44.9869 131.757 41.8671 129.872 41.1472 126.752C40.393 123.701 42.2785 120.581 45.364 119.861C60.9285 116.056 77.0072 115.267 93.0174 117.53C109.028 119.758 124.215 124.935 138.202 132.889C140.911 134.466 141.871 137.962 140.362 140.705H140.294ZM152.944 115.507C150.99 119.107 146.465 120.512 142.831 118.524C127.986 110.467 111.942 105.222 95.0744 102.822C78.2071 100.491 61.3399 101.108 44.8155 104.742C43.9241 104.948 43.067 104.982 42.21 104.879C39.2273 104.434 36.6218 102.205 35.9362 99.0855C35.0791 95.0401 37.5818 91.0975 41.6271 90.2062C59.8657 86.1608 78.5157 85.4751 97.1656 88.0806C115.781 90.6861 133.506 96.5485 149.961 105.394C153.561 107.382 154.898 111.907 152.944 115.507ZM166.932 87.0864C165.08 90.6519 161.241 92.4688 157.504 91.9546C156.51 91.8175 155.515 91.5089 154.555 90.9947C137.277 82.0125 118.661 76.0816 99.2226 73.3389C79.7841 70.6306 60.2428 71.1791 41.1815 75.0874C36.1761 76.0816 31.3422 72.8933 30.348 67.9222C29.3538 62.9512 32.5421 58.1173 37.5132 57.0888C58.6315 52.8034 80.2641 52.1863 101.76 55.1689C123.255 58.2201 143.893 64.7682 163.058 74.7788C167.549 77.0758 169.263 82.6296 166.932 87.1207V87.0864Z" fill="black"/>
</g>
<defs>
<clipPath id="clip0_2_2">
<rect width="192" height="192" fill="white"/>
</clipPath>
</defs>
</svg>
