<svg width="192" height="192" viewBox="0 0 192 192" fill="none" xmlns="http://www.w3.org/2000/svg">
<path fill-rule="evenodd" clip-rule="evenodd" d="M25.7248 86.6166C69.0481 67.7391 97.9253 55.2775 112.387 49.2621C153.649 32.0772 162.218 29.0931 167.802 29.0006C169.034 28.9851 171.787 29.2775 173.572 30.7236C175.064 31.9543 175.479 33.6003 175.68 34.7545C175.88 35.9082 176.126 38.5545 175.926 40.6159C173.695 64.1242 164.018 121.201 159.095 147.54C157.018 158.679 152.91 162.417 148.941 162.787C140.31 163.571 133.756 157.079 125.402 151.586C112.325 143.017 104.94 137.663 92.2484 129.294C77.5713 119.617 87.0787 114.309 95.448 105.616C97.6329 103.34 135.649 68.7239 136.387 65.5852C136.479 65.1853 136.556 63.7237 135.695 62.955C134.818 62.1857 133.541 62.4471 132.618 62.6625C131.31 62.955 110.417 76.7702 69.9404 104.124C64.0169 108.201 58.6324 110.186 53.8327 110.078C48.5246 109.97 38.3094 107.078 30.7244 104.601C21.4169 101.586 15.4016 100.016 16.0473 94.8778C16.3858 92.2011 19.6169 89.4473 25.7248 86.6166Z" fill="black"/>
</svg>
