<svg width="192" height="192" viewBox="0 0 192 192" fill="none" xmlns="http://www.w3.org/2000/svg">
<path fill-rule="evenodd" clip-rule="evenodd" d="M170.967 159.377C156.048 163.404 95.8996 163.404 95.8996 163.404C95.8996 163.404 35.8865 163.404 21.0327 159.377C12.768 157.09 6.31855 150.505 3.96655 142.372C1.82065e-06 127.452 0 96.0691 0 96.0691C0 96.0691 1.82065e-06 64.8866 3.96655 50.1026C6.31855 41.768 12.768 35.3186 21.0327 33.1018C35.8865 29 95.8996 29 95.8996 29C95.8996 29 156.048 29 170.967 33.1018C179.367 35.3186 185.681 41.768 187.903 50.1026C192 64.8866 192 96.0691 192 96.0691C192 96.0691 192 127.452 187.903 142.372C185.681 150.505 179.367 157.09 170.967 159.377ZM76.8175 67.3738L126.615 96.0691L76.8175 124.965V67.3738Z" fill="black"/>
</svg>
